# xmcd
#
# Track frame offsets:
#	150
#	10839
#	33341
#	47917
#	69523
#	87237
#	108203
#	118361
#	135285
#	152753
#	171063
#	199424
#	212215
#	234021
#	251526
#	272072
#	287126
#
# Disc length: 4210 seconds
#
# Revision: 1
# Processed by: cddbd v1.5.2PL0 Copyright (c) Steve Scherf et al.
# Submitted via: audiograbber 1.83.01
#
DISCID=ec107011
DTITLE=Brazil Billy - Live and In Person at Robert's Western World
DYEAR=2005
DGENRE=Country
TTITLE0=Old Joe Clark (Trad.)
TTITLE1=T for Texas (J. Rodgers)
TTITLE2=Shotgun Boogie (E. Ford)
TTITLE3=El Paso (M. Robbins)
TTITLE4=El Paso City (M. Robbins)
TTITLE5=Folsom Prison Blues (J.R. Cash)
TTITLE6=Why Don't You Love Me (H. Williams)
TTITLE7=Orange Blossom Special (G. Terry)
TTITLE8=Red Hot (W. Emerson)
TTITLE9=Juke Joint Johnny (L. Moore)
TTITLE10=Suspicious Minds (M. James)
TTITLE11=Battle of New Orleans (J. Driftwood)
TTITLE12=Polk Salad Annie (T. White)
TTITLE13=Six Days on the Road (E. Greene)
TTITLE14=Hickory Wind (G. Parsons)
TTITLE15=Ribbon of Darkness (G. Lightfoot)
TTITLE16=Get the Hell Out/Old Joe Clark (D. Tanner/Trad.)
EXTD=
EXTT0=
EXTT1=
EXTT2=
EXTT3=
EXTT4=
EXTT5=
EXTT6=
EXTT7=
EXTT8=
EXTT9=
EXTT10=
EXTT11=
EXTT12=
EXTT13=
EXTT14=
EXTT15=
EXTT16=
PLAYORDER=
